<?xml version="1.0" encoding="utf-8"?>
<!-- Generator: Adobe Illustrator 24.1.0, SVG Export Plug-In . SVG Version: 6.00 Build 0)  -->
<svg version="1.1" id="Capa_1" xmlns="http://www.w3.org/2000/svg" xmlns:xlink="http://www.w3.org/1999/xlink" x="0px" y="0px"
	 viewBox="0 0 512 512" style="enable-background:new 0 0 512 512;" xml:space="preserve">
<style type="text/css">
	.st0{fill:#FFFFFF;}
</style>
<g transform="translate(0.000000,512.000000) scale(0.100000,-0.100000)">
	<path class="st0" d="M245,4007c-90-30-171-102-216-192c-21-43-24-64-24-155c0-96,2-110,28-160c24-45,242-268,1165-1192
		c944-945,1147-1143,1197-1170c57-31,65-33,165-33s108,2,165,33c51,27,252,224,1201,1175c905,906,1145,1152,1165,1192
		c21,43,24,64,24,155c0,96-3,110-29,162c-35,69-93,127-166,165c-50,25-65,28-155,28c-175,0-75,87-1207-1044l-998-996l-997,996
		C442,4089,531,4012,370,4017C320,4018,269,4014,245,4007z"/>
</g>
</svg>
