<?xml version="1.0" encoding="utf-8"?>
<!-- Generator: Adobe Illustrator 24.1.0, SVG Export Plug-In . SVG Version: 6.00 Build 0)  -->
<svg version="1.1" id="Capa_1" xmlns="http://www.w3.org/2000/svg" xmlns:xlink="http://www.w3.org/1999/xlink" x="0px" y="0px"
	 viewBox="0 0 512 512" style="enable-background:new 0 0 512 512;" xml:space="preserve">
<style type="text/css">
	.st0{fill:#FFFFFF;}
</style>
<g transform="translate(0.000000,512.000000) scale(0.100000,-0.100000)">
	<path class="st0" d="M1260,4509c-195-20-376-68-535-143l-90-42l-80,27c-164,56-291,71-379,45C43,4356-18,4251,7,4105
		c13-74,61-198,114-289c38-67,39-71,30-120c-32-158-44-302-45-511c-1-238,13-361,60-522c29-101,29-99,4-174c-46-134-63-279-64-524
		c0-222,8-329,40-511l14-82l-45-79c-53-94-101-221-111-291c-15-115,27-207,115-255c94-51,235-46,421,17l95,32l90-43
		c413-193,970-203,1597-28c67,19,151,42,185,52l61,17l104-32c700-212,1322-212,1746,2l64,32l97-32c230-76,383-69,475,22
		c50,51,61,81,60,174c-1,99-34,201-109,333l-45,79l14,82c32,183,40,289,40,501c-1,238-18,372-67,526l-23,74l23,75
		c51,164,66,287,67,540c0,227-11,357-45,526c-9,49-8,53,30,120c158,274,158,476,0,557c-101,52-232,46-420-17l-96-33l-67,34
		c-416,210-1027,214-1709,13c-74-22-142-40-151-40s-67,15-129,34C2017,4488,1586,4541,1260,4509z M1725,4270
		c381-43,777-157,1214-350c154-68,166-72,200-61c76,22,109,95,76,165c-16,33-32,44-129,90c-61,29-120,56-131,61c-26,10,28,24,215,59
		c204,37,362,50,550,42c256-9,430-51,623-151c59-30,118-55,132-55c13,0,58,13,99,30c100,39,219,70,274,70c43,0,44-1,37-27
		c-7-30-83-188-140-293l-36-65l25-135c46-253,58-494,35-700l-12-100l-61,59c-84,80-180,141-223,141c-72,0-123-52-123-124
		c0-39,35-88,79-111c125-64,250-243,301-429c67-243,67-593,0-941l-21-109l35-66c71-129,125-246,132-283l6-37h-39
		c-52,0-169,30-266,69c-43,17-89,31-102,31c-14,0-73-25-131-55c-203-104-371-144-645-152c-260-8-482,19-783,97
		c-245,63-559,176-787,284c-97,46-128,52-165,33c-67-34-89-97-59-161c16-33,32-44,129-90c61-29,120-57,131-61c15-6,3-12-55-26
		c-227-56-486-84-700-76c-256,9-430,50-623,147c-65,33-129,60-143,60c-13,0-58-14-101-31c-97-39-214-69-266-69h-39l7,38
		c7,37,63,159,131,283l36,66l-21,105c-36,174-51,315-51,474c0,132,12,292,26,333c3,9,23-4,63-42c81-77,176-137,218-137
		c71,0,123,52,123,123c0,43-27,78-93,121c-151,97-250,255-303,484c-50,212-43,590,17,883l20,98l-20,43c-11,24-41,79-66,123
		c-40,72-69,137-89,203c-7,20-4,22,37,22c56,0,170-29,270-69c43-17,89-31,104-31c14,0,58,18,97,39c141,78,299,131,467,155
		C1324,4281,1601,4284,1725,4270z"/>
	<path class="st0" d="M1354,3546c-47-21-74-61-74-113c0-37,5-50,33-77c26-27,45-35,107-45c256-44,522-145,715-272
		c100-66,236-201,298-296c53-82,68-93,129-93c50,0,82,19,103,60c32,62,8,120-109,266c-199,248-576,459-981,548
		C1419,3558,1390,3561,1354,3546z"/>
</g>
</svg>
