<?xml version="1.0" encoding="utf-8"?>
<!-- Generator: Adobe Illustrator 24.1.0, SVG Export Plug-In . SVG Version: 6.00 Build 0)  -->
<svg version="1.1" id="Capa_1" xmlns="http://www.w3.org/2000/svg" xmlns:xlink="http://www.w3.org/1999/xlink" x="0px" y="0px"
	 viewBox="0 0 512 512" style="enable-background:new 0 0 512 512;" xml:space="preserve">
<style type="text/css">
	.st0{fill:#FFFFFF;}
</style>
<g transform="translate(0.000000,512.000000) scale(0.100000,-0.100000)">
	<path class="st0" d="M2205,4575c-306-49-566-182-780-399c-143-143-198-228-370-564c-121-237-142-273-160-269c-11,3-47,12-80,21
		c-83,22-223,21-319-4c-181-46-343-176-423-340c-61-123-77-219-69-395c15-336,94-631,246-922c291-555,804-961,1409-1113
		c246-62,291-65,901-65c486,0,569,2,670,18c247,39,443,99,655,202c582,283,1010,812,1170,1444c57,227,79,518,51,661
		c-50,248-238,448-482,510c-96,25-236,26-319,4c-33-9-69-18-81-21c-18-4-37,28-158,266c-174,341-229,426-370,567
		c-202,201-426,324-701,385c-88,19-137,22-400,25C2368,4588,2273,4586,2205,4575z M2971,4258c52-14,130-40,171-58
		c172-71,369-233,471-387c40-61,313-579,320-607c2-11-289-164-430-226l-93-41l-92,30c-492,157-993,158-1496,5l-113-35l-92,41
		c-135,60-432,216-430,226c6,30,289,565,329,621c141,200,365,357,606,423c126,34,183,39,473,36C2859,4283,2881,4282,2971,4258z
		 M1046,2930c157-80,287-148,290-151c2-4-47-38-108-75c-62-38-134-90-160-115c-46-43-48-48-48-100c0-84,39-133,121-152
		c41-10,83,7,200,83c275,178,573,293,894,346c154,26,496,26,650,0c323-53,617-167,892-345c119-77,161-94,202-84
		c82,19,121,68,121,152c0,52-2,57-48,100c-26,25-99,77-161,115c-61,38-108,72-104,76s135,72,290,151l282,144h98c87,0,104-3,155-28
		c122-60,196-170,205-306c17-238-63-592-193-857c-290-595-871-992-1539-1054c-145-13-908-13-1055,1c-325,30-608,130-886,314
		c-405,269-691,686-798,1166c-42,190-57,398-35,499c23,106,130,220,240,255c27,9,76,14,127,12l83-2L1046,2930z"/>
	<path class="st0" d="M2327,3601c-65-14-117-78-117-146c0-43,18-81,55-115l27-25h268h268l27,25c80,74,72,177-18,244
		c-27,20-42,21-250,23C2465,3608,2348,3605,2327,3601z"/>
</g>
</svg>
