<?xml version="1.0" encoding="utf-8"?>
<!-- Generator: Adobe Illustrator 24.1.0, SVG Export Plug-In . SVG Version: 6.00 Build 0)  -->
<svg version="1.1" id="Capa_1" xmlns="http://www.w3.org/2000/svg" xmlns:xlink="http://www.w3.org/1999/xlink" x="0px" y="0px"
	 viewBox="0 0 512 512" style="enable-background:new 0 0 512 512;" xml:space="preserve">
<style type="text/css">
	.st0{fill:#FFFFFF;}
</style>
<g transform="translate(0.000000,512.000000) scale(0.100000,-0.100000)">
	<path class="st0" d="M2405,5110c-327-51-625-268-773-565c-70-140-112-309-112-450v-54l-293-3l-294-3l-42-28c-82-54-66,75-217-1787
		C579,1045,540,516,543,448c3-85,8-105,40-173c42-88,122-173,203-217C898-2,817,0,2556,0c1025,0,1610,4,1645,10
		c140,26,271,130,336,265c32,68,37,88,40,173c3,68-36,598-131,1772c-151,1862-135,1733-217,1787l-42,28l-294,3l-293,3v57
		c0,31-7,98-15,147c-66,410-372,741-780,846C2713,5114,2500,5124,2405,5110z M2775,4726c265-91,447-326,463-598l5-88h-682h-681v63
		c0,35,9,99,20,141c63,247,244,429,492,496C2500,4769,2666,4763,2775,4726z M1520,3221c0-301,4-469,11-488c13-34,55-80,91-99
		c34-18,109-18,151,0c42,17,83,66,97,114c6,23,10,208,10,485v447h680h680v-447c0-277,4-462,10-485c14-48,55-97,97-114
		c42-18,117-18,151,0c36,19,78,65,91,99c7,19,11,187,11,488v459h185c141,0,185-3,185-12c0-7,58-732,130-1611
		c83-1030,126-1606,120-1621c-4-12-23-35-40-49l-32-27H2560H972l-32,27c-17,14-36,37-40,49c-6,15,37,592,120,1621
		c72,879,130,1604,130,1611c0,9,44,12,185,12h185V3221z"/>
</g>
</svg>
