<?xml version="1.0" encoding="utf-8"?>
<!-- Generator: Adobe Illustrator 24.1.0, SVG Export Plug-In . SVG Version: 6.00 Build 0)  -->
<svg version="1.1" id="Capa_1" xmlns="http://www.w3.org/2000/svg" xmlns:xlink="http://www.w3.org/1999/xlink" x="0px" y="0px"
	 viewBox="0 0 512 512" style="enable-background:new 0 0 512 512;" xml:space="preserve">
<style type="text/css">
	.st0{fill:#FFFFFF;}
</style>
<g transform="translate(0.000000,512.000000) scale(0.100000,-0.100000)">
	<path class="st0" d="M2488,5099c-57-29-72-67-78-189l-5-105l-85-7c-474-39-981-246-1369-558C381,3781,37,3102,3,2372
		c-5-128-4-140,16-179c24-48,80-83,131-83c45,0,105,34,130,74c34,55,144,150,213,184c165,82,358,82,524,0c70-34,164-115,208-178
		c32-47,89-80,135-80c40,0,106,34,121,62c22,41,113,131,172,169c97,63,173,84,307,84c94,0,127-4,182-23c80-28,167-83,226-144l42-44
		l-2-845c-3-834-3-845-24-890c-31-66-78-114-142-146c-47-23-70-28-132-28c-125,0-223,62-273,174c-17,36-22,75-27,181
		c-6,156-18,188-80,220c-50,25-90,25-140,0c-65-33-80-75-80-223c0-218,48-346,180-477c86-87,163-131,276-160c98-25,190-25,288,0
		c113,29,190,73,276,160c87,86,131,163,160,276c19,74,20,113,20,919v842l58,55c66,63,124,99,208,130c47,17,82,21,179,22
		c139,1,213-18,312-83c59-38,150-128,172-169c15-28,81-62,121-62c45,0,105,34,130,74c34,55,144,150,213,184c165,82,358,82,524,0
		c70-34,164-115,208-178c73-105,212-104,266,3c20,39,21,51,16,179c-40,877-522,1660-1297,2106c-301,173-681,292-1020,320l-85,7
		l-5,105c-6,123-21,160-80,190C2581,5125,2536,5125,2488,5099z M2407,2614c-1-1-33,13-72,31c-126,61-211,79-375,79
		c-163,0-249-18-373-78l-67-32v47c0,213,73,608,165,886c106,323,245,567,424,743c90,90,120,113,201,154l95,48l3-938
		C2409,3039,2409,2616,2407,2614z M2835,4432c97-50,259-212,348-348c169-255,306-631,372-1019c21-123,45-339,45-401v-50l-67,32
		c-124,60-210,78-373,78c-180,1-266-21-442-112c-5-2-8,420-8,937v941l27-11C2752,4474,2796,4452,2835,4432z M1753,4348
		c-4-7-38-58-75-113c-228-343-381-817-443-1365c-8-74-15-161-15-192s-4-59-9-62s-41,10-79,29c-121,60-216,80-377,80
		c-152,0-219-13-348-66c-39-16-72-28-73-26c-6,6,37,195,66,289c173,557,575,1044,1086,1315c105,55,251,123,267,123
		C1757,4360,1757,4354,1753,4348z M3555,4275c83-40,191-100,240-132c503-333,853-841,975-1418c11-49,18-91,16-92c-2-2-30,8-62,22
		c-235,104-518,98-748-16c-32-16-62-26-67-23s-9,31-9,62c0,76-25,297-51,447c-73,429-218,826-407,1110c-37,55-71,106-76,114
		C3353,4370,3391,4355,3555,4275z"/>
</g>
</svg>
